<svg width="26" height="26" viewBox="0 0 26 26" fill="none" xmlns="http://www.w3.org/2000/svg">
<path d="M23.0829 20.8316H2.38776C2.17666 20.8316 1.9742 20.7472 1.82493 20.5969C1.67566 20.4467 1.5918 20.2429 1.5918 20.0304V6.4099C1.5918 6.1974 1.67566 5.99361 1.82493 5.84336C1.9742 5.6931 2.17666 5.60869 2.38776 5.60869H7.52972L8.89082 3.56562C8.96293 3.45541 9.06096 3.36483 9.17622 3.30193C9.29147 3.23903 9.42038 3.20576 9.55148 3.20508H15.9192C16.0503 3.20576 16.1792 3.23903 16.2945 3.30193C16.4097 3.36483 16.5078 3.45541 16.5799 3.56562L17.941 5.60869H23.0829C23.294 5.60869 23.4965 5.6931 23.6458 5.84336C23.795 5.99361 23.8789 6.1974 23.8789 6.4099V20.0304C23.8789 20.2429 23.795 20.4467 23.6458 20.5969C23.4965 20.7472 23.294 20.8316 23.0829 20.8316ZM3.18373 19.2292H22.287V7.2111H17.5112C17.3801 7.21042 17.2512 7.17715 17.1359 7.11425C17.0206 7.05135 16.9226 6.96077 16.8505 6.85056L15.4894 4.80749H9.9813L8.6202 6.85056C8.54809 6.96077 8.45006 7.05135 8.3348 7.11425C8.21955 7.17715 8.09064 7.21042 7.95954 7.2111H3.18373V19.2292Z" fill="black"/>
<path d="M12.7353 17.6262C11.7907 17.6262 10.8674 17.3442 10.082 16.816C9.29661 16.2878 8.68448 15.537 8.32301 14.6586C7.96154 13.7802 7.86696 12.8136 8.05124 11.8811C8.23552 10.9486 8.69037 10.092 9.35828 9.41973C10.0262 8.74742 10.8772 8.28958 11.8036 8.10409C12.73 7.9186 13.6902 8.0138 14.5629 8.37765C15.4356 8.7415 16.1814 9.35765 16.7062 10.1482C17.231 10.9387 17.5111 11.8682 17.5111 12.8189C17.5111 14.0939 17.0079 15.3166 16.1123 16.2182C15.2167 17.1197 14.0019 17.6262 12.7353 17.6262ZM12.7353 9.61413C12.1056 9.61413 11.49 9.80209 10.9664 10.1542C10.4428 10.5064 10.0347 11.0069 9.79377 11.5925C9.55279 12.1781 9.48974 12.8225 9.61259 13.4442C9.73544 14.0659 10.0387 14.6369 10.4839 15.0851C10.9292 15.5333 11.4965 15.8385 12.1141 15.9622C12.7318 16.0858 13.3719 16.0224 13.9537 15.7798C14.5355 15.5373 15.0327 15.1265 15.3826 14.5995C15.7324 14.0724 15.9192 13.4528 15.9192 12.8189C15.9192 11.969 15.5837 11.1538 14.9866 10.5528C14.3895 9.95178 13.5797 9.61413 12.7353 9.61413Z" fill="black"/>
</svg>
