<svg width="1072" height="229" viewBox="0 0 1072 229" fill="none" xmlns="http://www.w3.org/2000/svg">
<path d="M15.3844 224C5.48437 224 1.58435 218 1.58435 211.1C1.58435 206.3 3.68438 202.7 9.98438 198.8C16.8844 194.3 18.6844 189.5 18.6844 176.6V106.1C18.6844 93.2002 16.2844 88.1002 8.48438 83.6002C2.78437 79.7002 0.984375 75.8002 0.984375 71.3002C0.984375 64.4002 5.18435 58.4002 15.0844 58.4002L19.2844 58.7002H57.0844C63.9844 58.7002 67.8844 61.7002 69.9844 68.3002L71.4844 73.7002C72.3844 77.0002 75.6844 77.3002 77.7844 74.0002C86.7844 60.5002 95.1844 56.0002 105.984 56.0002C117.984 56.0002 125.184 62.9002 125.184 79.7002C125.184 98.3002 116.484 122.9 104.784 122.9C101.484 122.9 98.1844 121.1 95.1844 117.8C91.2844 113.3 88.2844 111.8 83.4844 111.8C76.5844 111.8 71.7844 116.6 71.7844 126.5V176C71.4844 188.9 73.5844 194 81.6844 198.5C88.8844 202.4 91.2844 206.3 91.2844 210.8C91.2844 217.7 86.4844 224 75.3844 224H15.3844Z" fill="#9743FF"/>
<path d="M212.259 228.8C162.459 228.8 123.759 191 123.759 142.4C123.759 91.4002 162.459 53.6002 214.959 53.6002C264.159 53.6002 301.059 92.9002 301.059 142.1C301.059 191.9 262.659 228.8 212.259 228.8ZM178.059 122.9C178.059 155 197.559 194 220.359 194C235.659 194 246.759 181.4 246.759 161.6C246.759 127.7 227.259 88.7002 204.459 88.7002C189.159 88.7002 178.059 101.9 178.059 122.9Z" fill="#9743FF"/>
<path d="M311.869 224C301.969 224 298.069 218 298.069 211.1C298.069 206.3 300.169 202.7 306.469 198.8C313.369 194.3 315.169 189.5 315.169 176.6V106.1C315.169 93.2002 312.769 88.1002 304.969 83.6002C299.269 79.7002 297.469 75.8002 297.469 71.3002C297.469 64.4002 301.669 58.4002 311.569 58.4002L315.769 58.7002H350.869C359.869 58.7002 363.469 63.2002 366.169 74.3002C367.369 78.2002 370.369 79.1002 373.369 74.9002C381.769 63.2002 396.469 54.8002 413.569 54.8002C440.869 54.8002 457.669 69.5002 462.769 102.2L473.569 172.7C475.369 184.1 478.969 192.2 484.669 197C490.669 201.2 493.369 205.7 493.369 211.7C493.369 218.6 489.169 224 480.469 224H454.369C433.069 224 422.869 215.9 420.469 193.7L412.069 123.2C410.269 106.4 401.869 98.9002 388.669 98.9002C376.669 98.9002 368.269 106.1 368.269 116.6V175.7C367.969 188.6 370.069 193.7 377.869 198.2C384.769 202.1 387.169 206 387.169 210.8C387.169 217.7 382.669 224 371.569 224H311.869Z" fill="#9743FF"/>
<path d="M557.82 227.9C517.62 227.9 487.919 194 487.919 148.7C487.919 96.5002 523.32 55.4002 573.12 55.4002C579.72 55.4002 588.119 56.6002 592.919 57.5002C595.319 58.1002 597.72 58.7002 599.82 58.7002C602.52 58.7002 604.02 56.6002 604.02 52.4002V48.5002C604.32 35.6002 601.62 30.2002 592.62 25.7002C586.319 21.8002 584.22 17.9002 584.22 13.1002C584.22 6.20021 588.72 0.200195 600.12 0.200195H641.22C652.92 0.200195 657.12 5.0002 657.12 18.2002V176.6C657.12 189.5 658.92 194.3 665.82 198.8C672.12 202.7 674.22 206.3 674.22 211.1C674.22 218 670.319 224 660.419 224H619.92C610.92 224 607.32 219.8 606.12 212C604.92 206 600.72 205.4 596.82 209.9C587.82 221.3 574.92 227.9 557.82 227.9ZM542.82 130.7C542.82 158 557.219 185.3 579.419 185.3C593.52 185.3 604.02 175.4 604.02 158.6L604.32 122.9C604.32 98.6002 592.62 86.9002 575.22 87.2002C556.02 87.5002 542.82 105.8 542.82 130.7Z" fill="#9743FF"/>
<path d="M730.612 227.6C702.112 227.6 673.912 207.5 673.912 170.6C673.912 133.7 707.512 112.1 737.812 112.1C750.713 112.1 760.612 114.5 765.112 114.5C768.112 114.5 769.612 113 769.612 109.7C769.612 98.0002 760.612 86.6002 745.312 86.6002C730.912 86.6002 714.712 98.0002 702.112 106.1C693.112 111.5 687.713 108.2 683.812 99.2002C675.712 79.1002 676.612 69.5002 688.612 64.1002C698.812 59.3002 723.412 55.7002 742.912 55.7002C792.712 55.7002 819.712 71.6002 825.112 114.8L831.413 167.6C833.813 183.5 838.013 191.9 844.913 198.2C849.113 202.1 850.913 205.7 850.913 210.5C850.913 219.8 838.613 227.3 823.013 226.7C809.813 226.7 799.012 223.1 789.112 214.1C784.912 210.5 782.512 210.8 778.312 213.8C764.812 223.1 748.612 227.6 730.612 227.6ZM728.812 164.3C728.812 178.4 738.112 194 755.212 194C771.112 194 781.013 185 778.913 171.8L776.212 153.8C774.412 143.9 770.212 139.4 755.212 139.4C737.212 139.4 728.812 152.3 728.812 164.3Z" fill="#9743FF"/>
<path d="M921.867 228.5C896.367 228.2 874.767 222.2 863.367 214.1C851.967 206 850.767 196.4 859.767 179C862.167 172.7 865.467 167.6 871.167 167.6C877.167 167.6 881.667 172.7 891.267 181.4C904.167 194 915.267 199.4 924.867 199.4C935.667 199.4 944.067 192.2 944.067 184.4C944.067 174.5 933.867 167.9 909.267 159.8C872.067 148.1 856.167 133.4 856.167 108.5C856.167 76.1002 887.067 53.3002 931.167 53.3002C952.467 53.3002 973.467 59.9002 983.667 67.4002C996.867 76.1002 997.767 83.9002 989.067 102.5C986.667 108.2 983.367 110.6 979.467 110.6C975.267 110.6 969.867 106.1 959.967 97.1002C948.867 87.2002 938.367 81.8002 928.767 81.8002C918.867 81.8002 911.067 88.1002 911.067 96.5002C911.067 106.1 920.667 110.3 950.667 119.9C984.867 130.7 1000.17 146.6 1000.17 171.8C1000.17 206 967.767 228.5 921.867 228.5Z" fill="#9743FF"/>
<path d="M1036.21 227C1017.31 227 1002.01 211.4 1002.01 194.3C1002.01 185.3 1007.41 179.6 1016.11 179.6H1056.61C1065.31 179.6 1071.31 185.3 1071.31 194.3C1071.31 211.4 1055.11 227 1036.21 227Z" fill="#9743FF"/>
</svg>
