<svg width="1072" height="229" viewBox="0 0 1072 229" fill="none" xmlns="http://www.w3.org/2000/svg">
<path d="M15.3813 224H75.3812C86.4812 224 91.2813 217.7 91.2813 210.8C91.2813 206.3 88.8813 202.4 81.6813 198.5C73.5813 194 71.4813 188.9 71.7813 176V126.5C71.7813 116.6 76.5813 111.8 83.4813 111.8C88.2813 111.8 91.2813 113.3 95.1813 117.8C98.1813 121.1 101.481 122.9 104.781 122.9C116.481 122.9 125.181 98.3 125.181 79.7C125.181 62.9 117.981 56 105.981 56C95.1813 56 86.7813 60.5 77.7813 74C75.6813 77.3 72.3813 77 71.4813 73.7L69.9813 68.3C67.8813 61.7 63.9813 58.7 57.0813 58.7H19.2813L15.0813 58.4C5.18125 58.4 0.98125 64.4 0.98125 71.3C0.98125 75.8 2.78125 79.7 8.48125 83.6C16.2813 88.1 18.6813 93.2 18.6813 106.1V176.6C18.6813 189.5 16.8813 194.3 9.98125 198.8C3.68125 202.7 1.58125 206.3 1.58125 211.1C1.58125 218 5.48125 224 15.3813 224ZM212.256 228.8C262.656 228.8 301.056 191.9 301.056 142.1C301.056 92.9 264.156 53.6 214.956 53.6C162.456 53.6 123.756 91.4 123.756 142.4C123.756 191 162.456 228.8 212.256 228.8ZM178.056 122.9C178.056 101.9 189.156 88.7 204.456 88.7C227.256 88.7 246.756 127.7 246.756 161.6C246.756 181.4 235.656 194 220.356 194C197.556 194 178.056 155 178.056 122.9ZM311.866 224H371.566C382.666 224 387.166 217.7 387.166 210.8C387.166 206 384.766 202.1 377.866 198.2C370.066 193.7 367.966 188.6 368.266 175.7V116.6C368.266 106.1 376.666 98.9 388.666 98.9C401.866 98.9 410.266 106.4 412.066 123.2L420.466 193.7C422.866 215.9 433.066 224 454.366 224H480.466C489.166 224 493.366 218.6 493.366 211.7C493.366 205.7 490.666 201.2 484.666 197C478.966 192.2 475.366 184.1 473.566 172.7L462.766 102.2C457.666 69.5 440.866 54.8 413.566 54.8C396.466 54.8 381.766 63.2 373.366 74.9C370.366 79.1 367.366 78.2 366.166 74.3C363.466 63.2 359.866 58.7 350.866 58.7H315.766L311.566 58.4C301.666 58.4 297.466 64.4 297.466 71.3C297.466 75.8 299.266 79.7 304.966 83.6C312.766 88.1 315.166 93.2 315.166 106.1V176.6C315.166 189.5 313.366 194.3 306.466 198.8C300.166 202.7 298.066 206.3 298.066 211.1C298.066 218 301.966 224 311.866 224ZM557.816 227.9C574.916 227.9 587.816 221.3 596.816 209.9C600.716 205.4 604.916 206 606.116 212C607.316 219.8 610.916 224 619.916 224H660.416C670.316 224 674.216 218 674.216 211.1C674.216 206.3 672.116 202.7 665.816 198.8C658.916 194.3 657.116 189.5 657.116 176.6V18.2C657.116 4.99999 652.916 0.199985 641.216 0.199985H600.116C588.716 0.199985 584.216 6.2 584.216 13.1C584.216 17.9 586.316 21.8 592.616 25.7C601.616 30.2 604.316 35.6 604.016 48.5V52.4C604.016 56.6 602.516 58.7 599.816 58.7C597.716 58.7 595.316 58.1 592.916 57.5C588.116 56.6 579.716 55.4 573.116 55.4C523.316 55.4 487.916 96.5 487.916 148.7C487.916 194 517.616 227.9 557.816 227.9ZM542.816 130.7C542.816 105.8 556.016 87.5 575.216 87.2C592.616 86.9 604.316 98.6 604.316 122.9L604.016 158.6C604.016 175.4 593.516 185.3 579.416 185.3C557.216 185.3 542.816 158 542.816 130.7ZM730.609 227.6C748.609 227.6 764.809 223.1 778.309 213.8C782.509 210.8 784.909 210.5 789.109 214.1C799.009 223.1 809.809 226.7 823.009 226.7C838.609 227.3 850.909 219.8 850.909 210.5C850.909 205.7 849.109 202.1 844.909 198.2C838.009 191.9 833.809 183.5 831.409 167.6L825.109 114.8C819.709 71.6 792.709 55.7 742.909 55.7C723.409 55.7 698.809 59.3 688.609 64.1C676.609 69.5 675.709 79.1 683.809 99.2C687.709 108.2 693.109 111.5 702.109 106.1C714.709 98 730.909 86.6 745.309 86.6C760.609 86.6 769.609 98 769.609 109.7C769.609 113 768.109 114.5 765.109 114.5C760.609 114.5 750.709 112.1 737.809 112.1C707.509 112.1 673.909 133.7 673.909 170.6C673.909 207.5 702.109 227.6 730.609 227.6ZM728.809 164.3C728.809 152.3 737.209 139.4 755.209 139.4C770.209 139.4 774.409 143.9 776.209 153.8L778.909 171.8C781.009 185 771.109 194 755.209 194C738.109 194 728.809 178.4 728.809 164.3ZM921.864 228.5C967.764 228.5 1000.16 206 1000.16 171.8C1000.16 146.6 984.864 130.7 950.664 119.9C920.664 110.3 911.064 106.1 911.064 96.5C911.064 88.1 918.864 81.8 928.764 81.8C938.364 81.8 948.864 87.2 959.964 97.1C969.864 106.1 975.264 110.6 979.464 110.6C983.364 110.6 986.664 108.2 989.064 102.5C997.764 83.9 996.864 76.1 983.664 67.4C973.464 59.9 952.464 53.3 931.164 53.3C887.064 53.3 856.164 76.1 856.164 108.5C856.164 133.4 872.064 148.1 909.264 159.8C933.864 167.9 944.064 174.5 944.064 184.4C944.064 192.2 935.664 199.4 924.864 199.4C915.264 199.4 904.164 194 891.264 181.4C881.664 172.7 877.164 167.6 871.164 167.6C865.464 167.6 862.164 172.7 859.764 179C850.764 196.4 851.964 206 863.364 214.1C874.764 222.2 896.364 228.2 921.864 228.5ZM1036.21 227C1055.11 227 1071.31 211.4 1071.31 194.3C1071.31 185.3 1065.31 179.6 1056.61 179.6H1016.11C1007.41 179.6 1002.01 185.3 1002.01 194.3C1002.01 211.4 1017.31 227 1036.21 227Z" fill="#FA5E40"/>
</svg>
