<svg width="1158" height="229" viewBox="0 0 1158 229" fill="none" xmlns="http://www.w3.org/2000/svg">
<path d="M15.5403 224H83.3403C95.3403 224.3 100.44 218.3 100.44 211.1C100.44 206 98.3403 201.8 91.1403 198.5C80.6403 193.1 77.9403 187.7 77.9403 174.8V147.2C77.9403 141.8 80.6403 140 85.4403 139.7C102.24 139.1 112.44 149.3 122.94 170.6C128.64 182 132.84 193.1 136.74 202.7C143.64 218.6 150.84 224 168.24 224H204.24C215.04 224 219.54 219.2 219.54 210.8C219.54 203.3 216.54 199.4 210.54 195.5C203.34 191 197.94 184.7 189.24 168.2L181.44 153.5C173.94 138.8 166.44 130.4 155.64 124.1C152.64 122.3 153.24 119.6 155.94 118.1C178.74 106.1 195.84 90.8002 195.84 64.7002C195.84 26.0002 166.44 4.1002 126.54 4.1002H15.2403C5.04026 4.1002 0.840269 10.1002 0.840269 17.3002C0.540269 22.4002 2.64027 26.3002 8.64027 29.9002C17.9403 35.0002 20.3403 40.4002 20.3403 53.3002V174.8C20.3403 187.7 18.2403 193.1 9.24026 198.2C2.94026 201.5 0.840269 205.7 0.840269 210.5C0.840269 217.7 5.34027 224 15.5403 224ZM77.9403 48.5002C77.9403 41.0002 79.7403 38.3002 87.8403 38.3002H101.34C119.94 38.3002 133.14 52.1002 133.14 70.7002C133.14 90.2002 116.94 104.3 93.8403 104.3H84.8403C80.0403 104.3 78.2403 102.5 78.2403 96.8002L77.9403 48.5002Z" fill="black"/>
<path d="M298.492 228.8C348.892 228.8 387.292 191.9 387.292 142.1C387.292 92.9002 350.392 53.6002 301.192 53.6002C248.692 53.6002 209.992 91.4002 209.992 142.4C209.992 191 248.692 228.8 298.492 228.8ZM264.292 122.9C264.292 101.9 275.392 88.7002 290.692 88.7002C313.492 88.7002 332.992 127.7 332.992 161.6C332.992 181.4 321.892 194 306.592 194C283.792 194 264.292 155 264.292 122.9Z" fill="black"/>
<path d="M398.101 224H457.801C468.901 224 473.401 217.7 473.401 210.8C473.401 206 471.001 202.1 464.101 198.2C456.301 193.7 454.201 188.6 454.501 175.7V116.6C454.501 106.1 462.901 98.9002 474.901 98.9002C488.101 98.9002 496.501 106.4 498.301 123.2L506.701 193.7C509.101 215.9 519.301 224 540.601 224H566.701C575.401 224 579.601 218.6 579.601 211.7C579.601 205.7 576.901 201.2 570.901 197C565.201 192.2 561.601 184.1 559.801 172.7L549.001 102.2C543.901 69.5002 527.101 54.8002 499.801 54.8002C482.701 54.8002 468.001 63.2002 459.601 74.9002C456.601 79.1002 453.601 78.2002 452.401 74.3002C449.701 63.2002 446.101 58.7002 437.101 58.7002H402.001L397.801 58.4002C387.901 58.4002 383.701 64.4002 383.701 71.3002C383.701 75.8002 385.501 79.7002 391.201 83.6002C399.001 88.1002 401.401 93.2002 401.401 106.1V176.6C401.401 189.5 399.601 194.3 392.701 198.8C386.401 202.7 384.301 206.3 384.301 211.1C384.301 218 388.201 224 398.101 224Z" fill="black"/>
<path d="M644.052 227.9C661.152 227.9 674.052 221.3 683.052 209.9C686.952 205.4 691.152 206 692.352 212C693.552 219.8 697.152 224 706.152 224H746.652C756.552 224 760.452 218 760.452 211.1C760.452 206.3 758.352 202.7 752.052 198.8C745.152 194.3 743.352 189.5 743.352 176.6V18.2002C743.352 5.0002 739.152 0.200195 727.452 0.200195H686.352C674.952 0.200195 670.452 6.20021 670.452 13.1002C670.452 17.9002 672.552 21.8002 678.852 25.7002C687.852 30.2002 690.552 35.6002 690.252 48.5002V52.4002C690.252 56.6002 688.752 58.7002 686.052 58.7002C683.952 58.7002 681.552 58.1002 679.152 57.5002C674.352 56.6002 665.952 55.4002 659.352 55.4002C609.552 55.4002 574.152 96.5002 574.152 148.7C574.152 194 603.852 227.9 644.052 227.9ZM629.052 130.7C629.052 105.8 642.252 87.5002 661.452 87.2002C678.852 86.9002 690.552 98.6002 690.552 122.9L690.252 158.6C690.252 175.4 679.752 185.3 665.652 185.3C643.452 185.3 629.052 158 629.052 130.7Z" fill="black"/>
<path d="M816.845 227.6C834.845 227.6 851.045 223.1 864.545 213.8C868.745 210.8 871.145 210.5 875.345 214.1C885.245 223.1 896.045 226.7 909.245 226.7C924.845 227.3 937.145 219.8 937.145 210.5C937.145 205.7 935.345 202.1 931.145 198.2C924.245 191.9 920.045 183.5 917.645 167.6L911.345 114.8C905.945 71.6002 878.945 55.7002 829.145 55.7002C809.645 55.7002 785.045 59.3002 774.845 64.1002C762.845 69.5002 761.945 79.1002 770.045 99.2002C773.945 108.2 779.345 111.5 788.345 106.1C800.945 98.0002 817.145 86.6002 831.545 86.6002C846.845 86.6002 855.845 98.0002 855.845 109.7C855.845 113 854.345 114.5 851.345 114.5C846.845 114.5 836.945 112.1 824.045 112.1C793.745 112.1 760.145 133.7 760.145 170.6C760.145 207.5 788.345 227.6 816.845 227.6ZM815.045 164.3C815.045 152.3 823.445 139.4 841.445 139.4C856.445 139.4 860.645 143.9 862.445 153.8L865.145 171.8C867.245 185 857.345 194 841.445 194C824.345 194 815.045 178.4 815.045 164.3Z" fill="black"/>
<path d="M1008.1 228.5C1054 228.5 1086.4 206 1086.4 171.8C1086.4 146.6 1071.1 130.7 1036.9 119.9C1006.9 110.3 997.3 106.1 997.3 96.5002C997.3 88.1002 1005.1 81.8002 1015 81.8002C1024.6 81.8002 1035.1 87.2002 1046.2 97.1002C1056.1 106.1 1061.5 110.6 1065.7 110.6C1069.6 110.6 1072.9 108.2 1075.3 102.5C1084 83.9002 1083.1 76.1002 1069.9 67.4002C1059.7 59.9002 1038.7 53.3002 1017.4 53.3002C973.3 53.3002 942.4 76.1002 942.4 108.5C942.4 133.4 958.3 148.1 995.5 159.8C1020.1 167.9 1030.3 174.5 1030.3 184.4C1030.3 192.2 1021.9 199.4 1011.1 199.4C1001.5 199.4 990.4 194 977.5 181.4C967.9 172.7 963.4 167.6 957.4 167.6C951.7 167.6 948.4 172.7 946 179C937 196.4 938.2 206 949.6 214.1C961 222.2 982.6 228.2 1008.1 228.5Z" fill="black"/>
<path d="M1122.44 227C1141.34 227 1157.54 211.4 1157.54 194.3C1157.54 185.3 1151.54 179.6 1142.84 179.6H1102.34C1093.64 179.6 1088.24 185.3 1088.24 194.3C1088.24 211.4 1103.54 227 1122.44 227Z" fill="black"/>
</svg>
