<svg width="1250" height="434" viewBox="0 0 1250 434" fill="none" xmlns="http://www.w3.org/2000/svg">
<path d="M29.41 128C14.28 127.83 8.16 121.88 8.16 107.43C8.16 99.95 9.52 89.92 11.05 79.38C12.75 68.16 13.94 60 13.94 55.58C13.94 51.16 13.26 49.8 6.12 49.46C1.36 49.29 0 47.08 0 41.81C0 38.41 1.19 36.2 5.1 34.16C9.69 31.78 13.94 29.23 17.17 25.66C21.08 21.75 23.63 17.67 26.35 13.25C28.39 10.36 30.77 8.82999 34 8.82999C38.08 8.82999 40.29 10.7 40.12 14.61L39.95 30.08C39.78 33.48 40.46 34.33 45.39 34.33H51.51C56.1 34.33 57.8 36.37 57.63 42.49C57.8 48.95 55.76 51.33 50.83 51.33H45.39C40.63 51.33 39.95 51.84 39.95 57.96C39.78 73.09 39.78 88.22 39.78 103.01C39.78 108.28 40.8 109.81 48.11 112.02C54.4 113.89 57.12 115.08 57.12 120.69C57.12 125.45 54.57 128 49.98 128H29.41ZM72.5116 26.51C67.7516 26.51 64.6916 23.62 64.6916 18.35C64.6916 8.49 72.6816 0.49999 83.2216 0.49999C93.7616 0.49999 102.092 8.49 102.092 18.35C102.092 23.79 99.0316 26.51 94.1016 26.51H72.5116ZM61.4616 41.47C61.4616 37.56 63.8416 34.16 69.4516 34.16L71.8316 34.33H92.4016C98.8616 34.33 101.412 37.22 101.412 45.04V100.97C101.412 108.28 102.432 111.17 106.512 113.55C110.252 115.93 111.442 117.97 111.442 120.69C111.442 124.6 109.062 128 103.282 128H69.6216C64.0116 128 61.8016 124.6 61.8016 120.69C61.8016 117.97 62.9916 115.93 66.5616 113.72C70.4716 111.17 71.4916 108.45 71.4916 101.14V61.19C71.4916 53.88 70.1316 50.99 65.7116 48.44C62.4816 46.23 61.4616 44.02 61.4616 41.47ZM121.917 128C116.307 128 114.097 124.6 114.097 120.69C114.097 117.97 115.287 115.93 118.857 113.72C122.767 111.17 123.787 108.45 123.787 101.14V61.19C123.787 53.88 122.427 50.99 118.007 48.44C114.777 46.23 113.757 44.02 113.757 41.47C113.757 37.56 116.137 34.16 121.747 34.16L124.127 34.33H144.017C149.117 34.33 151.157 36.88 152.687 43.17C153.367 45.38 155.067 45.89 156.767 43.51C161.527 36.88 169.857 32.12 179.547 32.12C195.017 32.12 204.537 40.45 207.427 58.98L213.547 98.93C214.567 105.39 216.607 109.98 219.837 112.7C223.237 115.08 224.767 117.63 224.767 121.03C224.767 124.94 222.387 128 217.457 128H202.667C190.597 128 184.817 123.41 183.457 110.83L178.697 70.88C177.677 61.36 172.917 57.11 165.437 57.11C158.637 57.11 153.877 61.19 153.877 67.14V100.63C153.707 107.94 154.897 110.83 159.317 113.38C163.227 115.59 164.587 117.8 164.587 120.52C164.587 124.43 162.037 128 155.747 128H121.917ZM261.289 130.21C238.509 130.21 221.679 111 221.679 85.33C221.679 55.75 241.739 32.46 269.959 32.46C273.699 32.46 278.459 33.14 281.179 33.65C282.539 33.99 283.899 34.33 285.089 34.33C286.619 34.33 287.469 33.14 287.469 30.76V28.55C287.639 21.24 286.109 18.18 281.009 15.63C277.439 13.42 276.249 11.21 276.249 8.49C276.249 4.58 278.799 1.17999 285.259 1.17999H308.549C315.179 1.17999 317.559 3.9 317.559 11.38V101.14C317.559 108.45 318.579 111.17 322.489 113.72C326.059 115.93 327.249 117.97 327.249 120.69C327.249 124.6 325.039 128 319.429 128H296.479C291.379 128 289.339 125.62 288.659 121.2C287.979 117.8 285.599 117.46 283.389 120.01C278.289 126.47 270.979 130.21 261.289 130.21ZM252.789 75.13C252.789 90.6 260.949 106.07 273.529 106.07C281.519 106.07 287.469 100.46 287.469 90.94L287.639 70.71C287.639 56.94 281.009 50.31 271.149 50.48C260.269 50.65 252.789 61.02 252.789 75.13ZM375.43 130.55C347.89 130.55 325.28 109.64 324.94 81.93C324.6 52.69 348.06 31.78 373.9 31.78C398.89 31.78 419.12 49.29 419.12 69.69C419.12 77.17 414.7 81.76 406.37 83.8C400.42 85.33 393.79 86.52 387.16 87.88C379.85 89.58 372.37 91.96 368.97 94.51C367.61 95.36 366.59 96.04 366.59 97.4C366.59 99.1 368.12 100.97 370.67 102.67C374.24 105.39 379.51 106.75 384.44 106.75C392.6 106.75 400.59 103.52 408.75 97.23C412.83 94.34 415.55 94.68 418.78 98.59C422.01 102.33 421.84 105.56 418.78 109.81C409.77 122.22 392.43 130.55 375.43 130.55ZM354.01 68.84C354.01 74.62 355.54 81.76 358.77 81.76C359.62 81.76 360.98 80.57 362.85 79.38C367.1 76.15 373.73 72.41 380.36 69.69C383.76 68.33 386.31 67.14 386.31 64.42C386.31 58.98 378.32 50.99 369.65 50.99C361.15 50.99 354.01 57.79 354.01 68.84ZM428.049 128C422.439 128 420.229 124.6 420.229 120.69C420.229 117.97 421.419 115.93 424.989 113.72C428.899 111.17 429.919 108.45 429.919 101.14V61.19C429.919 53.88 428.559 50.99 424.139 48.44C420.909 46.23 419.889 44.02 419.889 41.47C419.889 37.56 422.269 34.16 427.879 34.16L430.259 34.33H451.679C455.589 34.33 457.799 36.03 458.989 39.77L459.839 42.83C460.349 44.7 462.219 44.87 463.409 43C468.509 35.35 473.269 32.8 479.389 32.8C486.189 32.8 490.269 36.71 490.269 46.23C490.269 56.77 485.339 70.71 478.709 70.71C476.839 70.71 474.969 69.69 473.269 67.82C471.059 65.27 469.359 64.42 466.639 64.42C462.729 64.42 460.009 67.14 460.009 72.75V100.8C459.839 108.11 461.029 111 465.619 113.55C469.699 115.76 471.059 117.97 471.059 120.52C471.059 124.43 468.339 128 462.049 128H428.049ZM17.7 428C7.8 428 3.9 422 3.9 415.1C3.9 410.3 5.7 406.7 12.3 402.8C19.2 398.3 21 393.5 20.7 380.6V305.9C20.7 296.3 19.2 293.6 11.1 291.8C3.3 290 0 286.7 0 277.1C0 269.3 3.6 265.4 15 263.9C21 263.3 21.3 259.1 17.1 255.5C10.2 249.2 6.3 242.9 6.3 234.5C6.3 215 28.5 199.4 57 199.4C72 199.4 84.6 201.8 93.6 205.7C106.5 210.8 107.1 218.9 99.3 234.2C95.4 242 91.8 246.8 87.9 246.8C84.9 246.8 82.2 245 78.9 243.2C72 238.4 65.7 235.7 59.7 235.7C53.7 235.7 49.8 239.3 49.8 245C49.8 255.2 62.1 262.4 84.3 262.4C95.7 262.4 99 265.7 99 275.3C99 287.3 95.7 290.6 86.7 291.2H83.1C75.6 291.5 73.8 294.2 73.8 303.2V379.7C73.8 392.6 75.6 397.7 83.4 402.2C90.6 406.1 93 410 93 414.8C93 421.7 88.5 428 77.4 428H17.7ZM180.577 432.8C130.777 432.8 92.0766 395 92.0766 346.4C92.0766 295.4 130.777 257.6 183.277 257.6C232.477 257.6 269.377 296.9 269.377 346.1C269.377 395.9 230.977 432.8 180.577 432.8ZM146.377 326.9C146.377 359 165.877 398 188.677 398C203.977 398 215.077 385.4 215.077 365.6C215.077 331.7 195.577 292.7 172.777 292.7C157.477 292.7 146.377 305.9 146.377 326.9ZM280.186 428C270.286 428 266.386 422 266.386 415.1C266.386 410.3 268.486 406.7 274.786 402.8C281.686 398.3 283.486 393.5 283.486 380.6V310.1C283.486 297.2 281.086 292.1 273.286 287.6C267.586 283.7 265.786 279.8 265.786 275.3C265.786 268.4 269.986 262.4 279.886 262.4L284.086 262.7H321.886C328.786 262.7 332.686 265.7 334.786 272.3L336.286 277.7C337.186 281 340.486 281.3 342.586 278C351.586 264.5 359.986 260 370.786 260C382.786 260 389.986 266.9 389.986 283.7C389.986 302.3 381.286 326.9 369.586 326.9C366.286 326.9 362.986 325.1 359.986 321.8C356.086 317.3 353.086 315.8 348.286 315.8C341.386 315.8 336.586 320.6 336.586 330.5V380C336.286 392.9 338.386 398 346.486 402.5C353.686 406.4 356.086 410.3 356.086 414.8C356.086 421.7 351.286 428 340.186 428H280.186ZM462.413 428C452.513 428 448.613 422 448.613 415.1C448.613 410.3 450.713 406.7 457.013 402.8C463.913 398.3 465.713 393.5 465.713 380.6V310.1C465.713 297.2 463.313 292.1 455.513 287.6C449.813 283.7 448.013 279.8 448.013 275.3C448.013 268.4 452.213 262.4 462.113 262.4L466.313 262.7H504.113C511.013 262.7 514.913 265.7 517.013 272.3L518.513 277.7C519.413 281 522.713 281.3 524.813 278C533.813 264.5 542.213 260 553.013 260C565.013 260 572.213 266.9 572.213 283.7C572.213 302.3 563.513 326.9 551.813 326.9C548.513 326.9 545.213 325.1 542.213 321.8C538.313 317.3 535.313 315.8 530.513 315.8C523.613 315.8 518.813 320.6 518.813 330.5V380C518.513 392.9 520.613 398 528.713 402.5C535.913 406.4 538.313 410.3 538.313 414.8C538.313 421.7 533.512 428 522.412 428H462.413ZM660.18 432.5C611.58 432.5 571.68 395.6 571.08 346.7C570.48 295.1 611.88 258.2 657.48 258.2C701.58 258.2 737.28 289.1 737.28 325.1C737.28 338.3 729.48 346.4 714.78 350C704.28 352.7 692.58 354.8 680.88 357.2C667.98 360.2 654.78 364.4 648.78 368.9C646.38 370.4 644.58 371.6 644.58 374C644.58 377 647.28 380.3 651.78 383.3C658.08 388.1 667.38 390.5 676.08 390.5C690.48 390.5 704.58 384.8 718.98 373.7C726.18 368.6 730.98 369.2 736.68 376.1C742.38 382.7 742.08 388.4 736.68 395.9C720.78 417.8 690.18 432.5 660.18 432.5ZM622.38 323.6C622.38 333.8 625.08 346.4 630.78 346.4C632.28 346.4 634.68 344.3 637.98 342.2C645.48 336.5 657.18 329.9 668.88 325.1C674.88 322.7 679.38 320.6 679.38 315.8C679.38 306.2 665.28 292.1 649.98 292.1C634.98 292.1 622.38 304.1 622.38 323.6ZM807.366 433.1C775.566 432.8 753.366 417.8 753.366 381.2V310.1C753.366 297.2 751.266 292.1 743.166 287.6C737.466 283.7 735.666 279.8 735.666 275.3C735.666 268.4 739.866 262.4 749.766 262.4L753.966 262.7H791.166C802.266 262.7 807.366 267.5 807.066 279.2L806.466 364.7C806.166 380 813.966 388.7 828.666 388.7C844.266 388.7 854.466 378.8 854.466 365V310.1C854.466 297.2 852.066 292.1 843.066 287.3C836.766 283.7 834.666 279.8 834.966 275.3C834.966 268.4 839.466 262.4 850.566 262.4L855.066 262.7H891.966C904.266 262.7 907.866 267.5 907.866 280.7L907.566 380.6C907.566 393.5 909.066 398.3 916.266 402.8C922.566 406.7 924.666 410.3 924.666 415.1C924.666 422 920.466 428 910.566 428H869.766C861.066 428 858.066 424.4 855.966 415.4C854.766 410.6 849.966 409.1 846.666 413.9C838.266 426.2 823.266 433.4 807.366 433.1ZM995.653 432.5C970.153 432.2 948.553 426.2 937.153 418.1C925.753 410 924.553 400.4 933.553 383C935.953 376.7 939.253 371.6 944.953 371.6C950.953 371.6 955.453 376.7 965.053 385.4C977.953 398 989.053 403.4 998.653 403.4C1009.45 403.4 1017.85 396.2 1017.85 388.4C1017.85 378.5 1007.65 371.9 983.053 363.8C945.853 352.1 929.953 337.4 929.953 312.5C929.953 280.1 960.853 257.3 1004.95 257.3C1026.25 257.3 1047.25 263.9 1057.45 271.4C1070.65 280.1 1071.55 287.9 1062.85 306.5C1060.45 312.2 1057.15 314.6 1053.25 314.6C1049.05 314.6 1043.65 310.1 1033.75 301.1C1022.65 291.2 1012.15 285.8 1002.55 285.8C992.653 285.8 984.853 292.1 984.853 300.5C984.853 310.1 994.453 314.3 1024.45 323.9C1058.65 334.7 1073.95 350.6 1073.95 375.8C1073.95 410 1041.55 432.5 995.653 432.5ZM1167.31 432.5C1118.71 432.5 1078.81 395.6 1078.21 346.7C1077.61 295.1 1119.01 258.2 1164.61 258.2C1208.71 258.2 1244.41 289.1 1244.41 325.1C1244.41 338.3 1236.61 346.4 1221.91 350C1211.41 352.7 1199.71 354.8 1188.01 357.2C1175.11 360.2 1161.91 364.4 1155.91 368.9C1153.51 370.4 1151.71 371.6 1151.71 374C1151.71 377 1154.41 380.3 1158.91 383.3C1165.21 388.1 1174.51 390.5 1183.21 390.5C1197.61 390.5 1211.71 384.8 1226.11 373.7C1233.31 368.6 1238.11 369.2 1243.81 376.1C1249.51 382.7 1249.21 388.4 1243.81 395.9C1227.91 417.8 1197.31 432.5 1167.31 432.5ZM1129.51 323.6C1129.51 333.8 1132.21 346.4 1137.91 346.4C1139.41 346.4 1141.81 344.3 1145.11 342.2C1152.61 336.5 1164.31 329.9 1176.01 325.1C1182.01 322.7 1186.51 320.6 1186.51 315.8C1186.51 306.2 1172.41 292.1 1157.11 292.1C1142.11 292.1 1129.51 304.1 1129.51 323.6Z" fill="#9743FF"/>
</svg>
